<svg width="210" height="50" viewBox="0 0 210 50" fill="none" xmlns="http://www.w3.org/2000/svg">
<g clip-path="url(#clip0_510_23078)">
<path d="M17.1855 32.6729L15.0015 30.45L29.8243 15.3633C30.2488 14.9313 30.7527 14.5886 31.3074 14.3548C31.862 14.1209 32.4564 14.0006 33.0567 14.0006C33.657 14.0006 34.2515 14.1209 34.8061 14.3548C35.3607 14.5886 35.8647 14.9313 36.2891 15.3633L38.4732 17.5863L23.6504 32.6729C22.7931 33.5455 21.6304 34.0357 20.418 34.0357C19.2056 34.0357 18.0428 33.5455 17.1855 32.6729Z" fill="#F15A25"/>
<path d="M34.0293 32.6729L31.8452 30.45L46.6681 15.3633C47.0925 14.9313 47.5965 14.5886 48.1511 14.3548C48.7057 14.1209 49.3002 14.0006 49.9005 14.0006C50.5008 14.0006 51.0952 14.1209 51.6499 14.3548C52.2045 14.5886 52.7084 14.9313 53.1329 15.3633L55.317 17.5863L40.4941 32.6729C39.6368 33.5455 38.4741 34.0357 37.2617 34.0357C36.0493 34.0357 34.8866 33.5455 34.0293 32.6729Z" fill="#F15A25"/>
<path d="M50.5781 30.4888C50.5781 33.0008 52.5788 35.0371 55.0468 35.0371C57.5149 35.0371 59.5156 33.0008 59.5156 30.4888C59.5156 27.9768 57.5149 25.9405 55.0468 25.9405C52.5788 25.9405 50.5781 27.9768 50.5781 30.4888Z" fill="#F15A25"/>
<path d="M126.901 31.4979H122.784L117.799 25.1702V25.1614V31.4979H114.258V17.5989C114.258 16.6446 114.63 15.7294 115.293 15.0545C115.956 14.3797 116.855 14.0003 117.793 14V14V23.6826L122.513 17.5461H126.735L121.225 24.4371L126.901 31.4979Z" fill="white"/>
<path d="M195.101 25.0189C194.671 24.4411 194.091 23.9976 193.426 23.7388C192.78 23.4888 192.12 23.2788 191.449 23.1101C190.873 22.9721 190.312 22.7771 189.774 22.5278C189.315 22.3103 189.088 22.0248 189.088 21.6702C189.085 21.5112 189.122 21.3541 189.197 21.2146C189.272 21.0751 189.382 20.9582 189.516 20.8755C189.839 20.6722 190.214 20.5715 190.594 20.5863C191.564 20.5821 192.254 21.0272 192.666 21.9217L195.526 20.3348C195.046 19.4618 194.335 18.743 193.474 18.2599C192.59 17.7721 191.598 17.5228 190.593 17.5356C189.187 17.5356 188.017 17.9129 187.074 18.6598C186.132 19.4068 185.656 20.4329 185.656 21.7394C185.656 22.6008 185.887 23.3213 186.345 23.8897C186.787 24.4501 187.365 24.8835 188.022 25.1472C188.668 25.4064 189.328 25.6272 189.999 25.8086C190.572 25.9544 191.132 26.1522 191.67 26.3996C192.134 26.6222 192.36 26.9114 192.36 27.2623C192.36 28.0168 191.762 28.394 190.571 28.394C189.253 28.394 188.404 27.821 188.026 26.675L185.117 28.3412C186.087 30.437 187.904 31.4849 190.571 31.4849C192.053 31.4849 193.299 31.1152 194.294 30.3871C195.29 29.659 195.787 28.6103 195.787 27.2547C195.787 26.3653 195.558 25.62 195.101 25.0189Z" fill="white"/>
<path d="M111.963 17.548V21.1419C111.159 21.1948 110.401 21.5423 109.828 22.1202C109.256 22.6981 108.909 23.4673 108.851 24.2856C108.851 24.3611 108.843 24.4365 108.843 24.517C108.841 24.5938 108.844 24.6706 108.851 24.7471V31.4923H105.316V17.543H108.852V18.4094C109.807 17.8736 110.874 17.5783 111.963 17.548Z" fill="white"/>
<path d="M174.828 23.3714C174.572 21.8113 173.803 20.3859 172.647 19.3288C171.491 18.2716 170.016 17.6455 168.465 17.553C166.914 17.4605 165.377 17.907 164.108 18.8195C162.839 19.732 161.912 21.0563 161.479 22.5754C161.046 24.0944 161.132 25.7181 161.725 27.1804C162.317 28.6427 163.38 29.8568 164.739 30.6237C166.098 31.3907 167.673 31.665 169.205 31.4018C170.738 31.1385 172.137 30.3533 173.173 29.1747L170.55 26.7704C170.168 27.21 169.679 27.5406 169.133 27.7293C168.587 27.9181 168.002 27.9586 167.435 27.8469C166.869 27.7352 166.341 27.475 165.904 27.0922C165.466 26.7094 165.134 26.217 164.941 25.6638H174.825C174.865 25.4288 174.891 25.1915 174.904 24.9534C174.913 24.815 174.916 24.6641 174.916 24.5183C174.918 24.1342 174.888 23.7506 174.828 23.3714ZM164.944 23.3714C165.174 22.7155 165.598 22.1482 166.158 21.7471C166.717 21.3459 167.385 21.1306 168.069 21.1306C168.754 21.1306 169.421 21.3459 169.981 21.7471C170.541 22.1482 170.965 22.7155 171.195 23.3714H164.944Z" fill="white"/>
<path d="M152.058 17.444C150.898 17.4415 149.757 17.7415 148.744 18.3154V17.5421H145.203V35.04H148.744V30.5256C149.757 31.0991 150.898 31.3987 152.058 31.3958C152.965 31.4082 153.867 31.2369 154.709 30.8919C155.551 30.5469 156.318 30.035 156.964 29.386C157.61 28.737 158.123 27.9638 158.474 27.1113C158.824 26.2588 159.004 25.3439 159.004 24.4199C159.004 23.4958 158.824 22.581 158.474 21.7285C158.123 20.8759 157.61 20.1027 156.964 19.4537C156.318 18.8047 155.551 18.2929 154.709 17.9479C153.867 17.6029 152.965 17.4316 152.058 17.444ZM152.058 27.8057C151.225 27.805 150.423 27.4867 149.809 26.9136C149.196 26.3405 148.816 25.5541 148.744 24.7097C148.735 24.6154 148.73 24.5186 148.73 24.4205C148.73 24.3224 148.73 24.2243 148.744 24.1313C148.799 23.4757 149.04 22.8506 149.438 22.3321C149.836 21.8137 150.374 21.4245 150.985 21.212C151.597 20.9994 152.256 20.9728 152.883 21.1353C153.509 21.2979 154.076 21.6425 154.513 22.1272C154.95 22.6119 155.239 23.2157 155.344 23.8648C155.45 24.5139 155.367 25.1802 155.107 25.7824C154.847 26.3846 154.42 26.8966 153.878 27.2559C153.337 27.6152 152.704 27.8062 152.058 27.8057Z" fill="white"/>
<path d="M99.4648 17.543V18.4144C98.4211 17.8288 97.2455 17.5302 96.0539 17.5481C94.8623 17.5661 93.6958 17.8999 92.6697 18.5168C91.6435 19.1336 90.7931 20.012 90.2023 21.0655C89.6115 22.1189 89.3008 23.3109 89.3008 24.5239C89.3008 25.7369 89.6115 26.9289 90.2023 27.9823C90.7931 29.0358 91.6435 29.9142 92.6697 30.531C93.6958 31.1479 94.8623 31.4817 96.0539 31.4997C97.2455 31.5176 98.4211 31.219 99.4648 30.6334V31.4948H103.001V17.543H99.4648ZM96.1475 27.9097C95.499 27.9101 94.8646 27.7176 94.3222 27.356C93.7797 26.9943 93.3529 26.4792 93.0943 25.874C92.8357 25.2687 92.7564 24.5998 92.8663 23.9493C92.9762 23.2989 93.2705 22.6953 93.7129 22.2128C94.1554 21.7302 94.7267 21.3898 95.3567 21.2334C95.9867 21.0769 96.6478 21.1113 97.2589 21.3321C97.87 21.553 98.4043 21.9508 98.7962 22.4767C99.1881 23.0025 99.4205 23.6334 99.4648 24.2919C99.4648 24.3686 99.4734 24.444 99.4734 24.5233C99.4749 24.6005 99.472 24.6777 99.4648 24.7546C99.4072 25.6103 99.0328 26.4119 98.417 26.9975C97.8013 27.5831 96.9902 27.9091 96.1475 27.9097Z" fill="white"/>
<path d="M142.903 17.543V31.5011H139.367V30.6346C138.323 31.2219 137.146 31.5219 135.953 31.5049C134.761 31.4878 133.593 31.1544 132.565 30.5376C131.538 29.9207 130.686 29.0417 130.094 27.9874C129.503 26.9331 129.191 25.74 129.191 24.5258V17.543H132.731V24.2881C132.731 24.3636 132.722 24.439 132.722 24.5195C132.722 24.6 132.722 24.6742 132.731 24.7496C132.785 25.6079 133.158 26.413 133.774 27.0014C134.391 27.5898 135.204 27.9173 136.049 27.9173C136.894 27.9173 137.707 27.5898 138.324 27.0014C138.94 26.413 139.313 25.6079 139.367 24.7496C139.374 24.6731 139.377 24.5963 139.376 24.5195C139.376 24.439 139.376 24.3636 139.367 24.2881V17.543H142.903Z" fill="white"/>
<path d="M132.732 24.2871V24.7486C132.732 24.6732 132.723 24.5977 132.723 24.5185C132.723 24.4393 132.728 24.3626 132.732 24.2871Z" fill="white"/>
<path d="M183.866 17.548V21.1419C183.06 21.1921 182.3 21.5387 181.727 22.1172C181.155 22.6956 180.808 23.4663 180.752 24.2856C180.752 24.3611 180.74 24.4365 180.74 24.517C180.738 24.5939 180.742 24.6709 180.752 24.7471V31.4923H177.219V17.543H180.758V18.4094C181.712 17.8733 182.777 17.5779 183.866 17.548Z" fill="white"/>
<path d="M86.996 23.2696V31.5112H83.4551V23.4821C83.4551 23.4155 83.4674 23.3451 83.4674 23.2696C83.4674 23.1942 83.4588 23.1275 83.4551 23.0559C83.4036 22.5248 83.1566 22.0332 82.7637 21.6799C82.3707 21.3265 81.861 21.1377 81.3368 21.1512C80.8126 21.1647 80.3129 21.3797 79.9381 21.7528C79.5633 22.126 79.3411 22.6297 79.3162 23.1627C79.3143 23.1669 79.3133 23.1714 79.3133 23.1759C79.3133 23.1805 79.3143 23.185 79.3162 23.1891C79.3143 23.2159 79.3143 23.2428 79.3162 23.2696C79.3143 23.296 79.3143 23.3225 79.3162 23.3488C79.3162 23.3627 79.3162 23.3715 79.3162 23.3765V31.5112H75.7863V23.4821C75.789 23.4378 75.789 23.3932 75.7863 23.3488C75.7882 23.3225 75.7882 23.296 75.7863 23.2696C75.7882 23.2428 75.7882 23.2159 75.7863 23.1891C75.789 23.1439 75.789 23.0986 75.7863 23.0533C75.7332 22.5324 75.4923 22.0499 75.1101 21.6992C74.7279 21.3485 74.2315 21.1544 73.7169 21.1544C73.2023 21.1544 72.7059 21.3485 72.3237 21.6992C71.9415 22.0499 71.7006 22.5324 71.6474 23.0533C71.6474 23.125 71.6351 23.1917 71.6351 23.2671C71.6351 23.3426 71.6437 23.413 71.6474 23.4796V31.4961H68.1016V23.2696C68.1026 22.1269 68.4406 21.0108 69.0716 20.0657C69.7026 19.1205 70.5978 18.3898 71.6413 17.9681C72.9702 17.4299 74.4512 17.4299 75.7802 17.9681C75.9457 18.0347 76.1076 18.1102 76.2645 18.1906C76.577 18.3535 76.8739 18.5454 77.1516 18.7641C77.2862 18.8747 77.4221 18.9904 77.5482 19.1099C77.6717 18.9841 77.8101 18.8747 77.946 18.7641C78.2232 18.5454 78.5198 18.3535 78.8318 18.1906C78.9887 18.1102 79.1506 18.0347 79.3162 17.9681C80.6451 17.4299 82.1261 17.4299 83.4551 17.9681C84.4988 18.3896 85.3942 19.1202 86.0254 20.0654C86.6567 21.0106 86.9948 22.1268 86.996 23.2696Z" fill="white"/>
</g>
<defs>
<clipPath id="clip0_510_23078">
<rect width="181" height="21" fill="white" transform="translate(15 14)"/>
</clipPath>
</defs>
</svg>
