<svg width="748" height="301" viewBox="0 0 748 301" fill="none" xmlns="http://www.w3.org/2000/svg">
<path d="M84.6 256.2V215.4H7.5V164.4L102.6 43.2H141.6V164.4H168V215.4H141.6V256.2H84.6ZM63.6 164.4H91.2V128.4L63.6 164.4Z" fill="white"/>
<path d="M652.6 256.2V215.4H575.5V164.4L670.6 43.2H709.6V164.4H736V215.4H709.6V256.2H652.6ZM631.6 164.4H659.2V128.4L631.6 164.4Z" fill="white"/>
<g clip-path="url(#clip0_43_884)">
<path d="M467.076 190.461C467.79 188.32 467.222 186.304 468.506 185.756C469.791 185.208 471.238 187.377 471.591 188.504C471.943 189.631 471.591 193.468 471.591 193.468C471.591 193.468 470.922 206.505 471.471 209.224C472.02 211.942 472.83 212.891 472.825 215.186C472.819 217.481 472.34 224.035 471.471 225.737C470.602 227.44 468.637 230.713 465.851 230.929C463.066 231.146 461.285 226.631 459.932 226.009C458.58 225.386 456.843 226.287 455.141 225.469C453.439 224.651 453.385 219.397 453.805 217.668C454.224 215.939 457.308 208.846 457.608 208.095C457.909 207.343 466.362 192.602 467.076 190.461Z" fill="white" stroke="#909090" stroke-opacity="0.25"/>
<path d="M377.562 239.812C377.736 238.749 378.333 237.833 376.512 237.202C374.693 236.572 372.018 239.412 370.371 239.812C368.723 240.212 361.937 237.973 360.43 240.58C358.924 243.187 358.245 265.392 359.541 268.522C360.838 271.652 363.51 274.37 364.309 275.508C365.109 276.646 366.435 282.009 369.078 281.725C371.721 281.443 372.542 279.22 372.957 278.425C373.371 277.63 374.143 268.522 374.492 266.833C374.841 265.144 375.992 263.149 376.512 260.309C377.034 257.468 375.622 250.744 375.785 249.024C375.948 247.304 377.388 240.875 377.562 239.812Z" fill="white" stroke="#909090" stroke-opacity="0.25"/>
<path d="M373.519 239.812C373.353 238.749 372.786 237.833 374.518 237.202C376.25 236.572 378.797 239.412 380.365 239.812C381.935 240.212 388.001 239.077 389.829 240.58C391.658 242.083 391.91 265.392 390.676 268.522C389.441 271.652 386.897 274.37 386.136 275.508C385.375 276.646 384.113 282.009 381.597 281.725C379.081 281.443 378.298 279.22 377.904 278.425C377.509 277.63 376.774 268.522 376.441 266.833C376.11 265.144 375.014 263.149 374.518 260.309C374.022 257.468 375.366 250.744 375.211 249.024C375.055 247.304 373.684 240.875 373.519 239.812Z" fill="white" stroke="#909090" stroke-opacity="0.25"/>
<path d="M335.506 235.053C335.63 233.837 336.115 231.264 338.104 230.215C340.094 229.166 342.583 229.12 344.099 229.667C345.615 230.215 348.475 233.549 349.594 233.775C350.714 234.001 354.844 233.49 355.988 233.775C357.134 234.06 358.304 235.866 358.686 237.335C359.068 238.803 358.686 242.915 358.686 245.55C358.686 248.185 357.432 262.85 356.787 264.809C356.144 266.769 350.264 278.528 347.995 278.684C345.727 278.839 339.477 263.083 338.604 261.34C337.731 259.598 335.56 247.075 335.506 245.55C335.453 244.025 335.383 236.269 335.506 235.053Z" fill="white" stroke="#909090" stroke-opacity="0.25"/>
<path d="M414.789 235.053C414.665 233.837 414.18 231.264 412.191 230.215C410.202 229.166 407.713 229.12 406.197 229.667C404.68 230.215 401.82 233.549 400.701 233.775C399.582 234.001 395.452 233.49 394.307 233.775C393.162 234.06 391.991 235.866 391.609 237.335C391.227 238.803 391.609 242.915 391.609 245.55C391.609 248.185 392.863 262.85 393.507 264.809C394.152 266.769 400.031 278.528 402.3 278.684C404.569 278.839 410.818 263.083 411.692 261.34C412.565 259.598 414.735 247.075 414.789 245.55C414.842 244.025 414.913 236.269 414.789 235.053Z" fill="white" stroke="#909090" stroke-opacity="0.25"/>
<path d="M327.92 204.371C327.92 204.371 337.472 190.561 337.939 190.851C338.406 191.141 336.235 194.592 335.962 195.274C335.69 195.957 335.174 196.606 334.446 202.128C333.718 207.65 334.446 227.051 334.446 227.051C334.446 227.051 335.434 252.132 335.699 253.78C335.963 255.427 337.641 261.933 337.545 263.001C337.448 264.069 336.332 266.7 336.16 267.674C335.988 268.649 336.041 273.226 335.223 273.732C334.405 274.238 332.804 272.145 331.917 272.543C331.031 272.941 330.667 277.273 330.096 277.893C329.525 278.513 328.558 279.085 327.129 278.204C325.701 277.323 321.458 270.654 320.867 269.045C320.277 267.435 320.785 262.574 319.944 260.198C319.104 257.821 319.305 259.794 317.9 254.963C316.495 250.134 317.511 227.283 317.9 224.932C318.289 222.581 320.283 216.582 320.801 215.711C321.319 214.84 327.92 204.371 327.92 204.371Z" fill="white" stroke="#909090" stroke-opacity="0.25"/>
<path d="M422.373 204.371C422.373 204.371 412.82 190.561 412.355 190.851C411.888 191.141 414.059 194.592 414.331 195.274C414.603 195.957 415.12 196.606 415.847 202.128C416.575 207.65 415.847 227.051 415.847 227.051C415.847 227.051 414.859 252.132 414.595 253.78C414.33 255.427 412.653 261.933 412.749 263.001C412.846 264.069 413.961 266.7 414.134 267.674C414.305 268.649 414.253 273.226 415.07 273.732C415.888 274.238 417.489 272.145 418.376 272.543C419.262 272.941 419.627 277.273 420.197 277.893C420.768 278.513 421.735 279.085 423.164 278.204C424.593 277.323 428.835 270.654 429.426 269.045C430.017 267.435 429.509 262.574 430.349 260.198C431.189 257.821 430.989 259.794 432.393 254.963C433.799 250.134 432.782 227.283 432.393 224.932C432.004 222.581 430.01 216.582 429.493 215.711C428.974 214.84 422.373 204.371 422.373 204.371Z" fill="white" stroke="#909090" stroke-opacity="0.25"/>
<path d="M290.725 199.816C290.912 198.798 292.843 195.731 294.588 194.774C296.332 193.818 296.851 195.642 296.851 195.642L297.677 197.4C298.192 198.766 299.398 201.79 300.105 202.966C300.811 204.143 304.271 209.323 304.96 210.738C305.648 212.154 305.292 213.649 304.96 215.464C304.627 217.279 301.98 223.866 301.98 223.866C301.98 223.866 297.799 234.606 297.677 234.998C297.555 235.39 297.305 238.999 296.794 239.409C296.284 239.819 295.952 239.68 295.47 239.409C294.989 239.139 293.831 236.699 293.043 234.998C292.254 233.297 289.424 230.976 288.409 227.122C287.393 223.267 288.409 214.729 288.409 214.729C288.777 213.639 290.538 200.833 290.725 199.816Z" fill="white" stroke="#909090" stroke-opacity="0.25"/>
<path d="M309.419 214.566C311.149 213.996 310.888 212.001 312.471 211.985C314.053 211.969 315.403 212.656 315.787 214.566C316.171 216.475 316.926 225.555 316.171 226.733C315.415 227.911 315.061 228.567 314.561 229.839C314.06 231.111 314.561 237.405 314.561 237.723C314.561 238.041 314.031 245.198 314.031 248.77C314.031 248.77 314 253.137 313.708 255.377C313.416 257.617 315.299 260.246 314.521 261.173C313.743 262.1 310.09 256.544 309.429 255.986C308.768 255.427 308.625 256.105 307.265 254.988C305.906 253.87 304.404 245.625 303.451 242.489C302.498 239.353 299.55 232.945 299.34 228.197C299.129 223.448 301.893 217.057 302.522 216.021C303.152 214.986 302.863 215.221 304.976 214.566C307.09 213.91 307.69 215.136 309.419 214.566Z" fill="white" stroke="#909090" stroke-opacity="0.25"/>
<path d="M441.288 211.661C439.461 211.072 439.737 209.008 438.066 208.991C436.394 208.974 434.97 209.685 434.564 211.661C434.159 213.636 433.275 223.35 434.072 224.569C434.869 225.788 434.567 225.947 435.417 227.641C436.266 229.333 435.417 235.806 435.417 236.134C435.417 236.463 436.292 243.421 436.292 247.119C436.292 247.119 436.048 251.638 436.356 253.956C436.664 256.274 435.08 258.925 435.901 259.884C436.722 260.844 440.579 255.096 441.277 254.518C441.975 253.94 442.126 254.642 443.562 253.485C444.997 252.329 446.583 243.798 447.589 240.553C448.595 237.308 451.709 230.678 451.93 225.764C452.152 220.852 449.234 214.239 448.57 213.168C447.906 212.096 448.21 212.339 445.979 211.661C443.748 210.983 443.114 212.251 441.288 211.661Z" fill="white" stroke="#909090" stroke-opacity="0.25"/>
<path d="M278.303 199.898C278.419 198.965 278.915 194.22 280.519 193.075C282.123 191.931 289.467 200.546 290.489 202.012C291.511 203.478 290.671 207.337 290.489 208.931C290.307 210.525 288.377 215.439 288.072 216.234C287.767 217.03 284.611 222.465 282.936 222.769C281.264 223.072 279.151 219.221 278.307 217.683L278.303 217.676C277.462 216.142 277.178 215.498 276.994 214.024C276.81 212.551 276.898 210.686 276.994 209.507C277.09 208.33 278.187 200.831 278.303 199.898Z" fill="white"/>
<path d="M277.971 217.866L278.306 217.683L277.971 217.866ZM277.971 217.866L277.975 217.872C278.396 218.64 279.145 220.007 280.005 221.145C280.435 221.715 280.906 222.247 281.392 222.62C281.87 222.987 282.426 223.248 283.003 223.143C283.293 223.091 283.58 222.936 283.848 222.742C284.12 222.544 284.4 222.286 284.678 221.994C285.233 221.409 285.807 220.659 286.33 219.903C286.855 219.145 287.336 218.373 287.705 217.74C288.068 217.116 288.338 216.602 288.427 216.37C288.448 216.314 288.479 216.235 288.516 216.138C288.739 215.561 289.217 214.322 289.684 213.009C289.957 212.243 290.227 211.448 290.441 210.743C290.652 210.045 290.817 209.41 290.866 208.974C290.895 208.718 290.945 208.382 291.003 207.996C291.113 207.256 291.25 206.335 291.319 205.453C291.372 204.768 291.389 204.073 291.323 203.448C291.259 202.83 291.11 202.239 290.8 201.795C290.273 201.038 288.165 198.5 285.992 196.298C284.906 195.196 283.788 194.163 282.831 193.474C282.355 193.131 281.899 192.859 281.494 192.713C281.106 192.572 280.655 192.509 280.296 192.766C279.811 193.112 279.445 193.699 279.162 194.339C278.875 194.99 278.653 195.744 278.48 196.479C278.17 197.805 278.013 199.109 277.943 199.689C277.935 199.752 277.929 199.806 277.923 199.851C277.888 200.138 277.752 201.093 277.581 202.301C277.213 204.898 276.678 208.667 276.612 209.477C276.516 210.66 276.425 212.558 276.614 214.072C276.708 214.827 276.831 215.387 277.043 215.96C277.253 216.526 277.547 217.092 277.967 217.859L277.971 217.866Z" stroke="#909090" stroke-opacity="0.25"/>
<path d="M399.856 23.617C399.171 22.9504 396.807 19.6069 394.792 19.4509C392.778 19.2948 391.416 21.171 390.586 22.1778C389.756 23.1846 388.925 24.0715 388.405 24.7532C388.405 24.7532 382.532 32.4805 382.017 33.4643C381.503 34.4481 378.816 41.0022 378.278 42.4784C377.74 43.9545 377.109 46.5371 376.798 47.4777C376.487 48.4183 376.175 53.4618 376.175 53.4618C376.175 53.4618 375.488 59.5542 375.318 60.5064C375.148 61.4585 375.318 69.2931 375.318 69.2931C375.318 69.2931 375.586 74.9666 376.175 76.262C376.763 77.5573 378.633 79.438 379.602 80.0494C380.571 80.6609 383.798 82.0625 384.978 82.3219C386.157 82.5812 390.807 82.3219 391.521 82.3219C392.236 82.3219 397.145 81.4632 397.909 81.2614C398.673 81.0596 402.777 79.7686 403.986 79.3677C405.193 78.9667 406.84 77.7484 408.036 76.262C409.233 74.7757 409.125 74.0499 409.438 72.2474C409.75 70.4449 409.939 67.5965 409.904 66.8692C409.869 66.142 409.438 58.3855 409.438 58.0824V51.4166C409.438 49.621 409.132 46.7408 408.359 43.1073C407.588 39.4738 406.574 37.8409 405.932 35.8882C405.29 33.9356 403.709 29.8502 403.44 29.0709C403.169 28.2916 400.713 24.4503 399.856 23.617Z" fill="white"/>
<path d="M375.318 69.2931L374.937 69.3111V69.3014L375.318 69.2931ZM375.318 69.2931C374.937 69.3014 374.937 69.3014 374.937 69.3013V69.3011V69.2999V69.2957L374.936 69.2788L374.935 69.2129L374.93 68.9623C374.926 68.7459 374.92 68.4359 374.913 68.0609C374.9 67.3109 374.884 66.3008 374.873 65.2607C374.862 64.221 374.857 63.1496 374.865 62.2775C374.869 61.8417 374.877 61.4535 374.888 61.1428C374.9 60.8412 374.917 60.5888 374.943 60.4397C375.026 59.978 375.238 58.2327 375.432 56.5827C375.528 55.7622 375.62 54.9713 375.687 54.3854C375.72 54.0926 375.748 53.851 375.767 53.6827L375.789 53.4878L375.794 53.4367L375.795 53.4286L375.796 53.4236L375.798 53.3809L375.809 53.2185C375.818 53.0782 375.832 52.877 375.848 52.6325C375.883 52.1439 375.931 51.482 375.99 50.7904C376.049 50.0994 376.118 49.3756 376.192 48.7641C376.263 48.1679 376.344 47.6365 376.436 47.3585C376.553 47.0051 376.718 46.4108 376.908 45.7186C376.965 45.5121 377.025 45.297 377.086 45.077C377.35 44.1308 377.646 43.1024 377.92 42.3485C378.192 41.6015 379.001 39.5864 379.804 37.6418C380.604 35.7052 381.413 33.7996 381.68 33.2883C381.824 33.0118 382.309 32.3167 382.924 31.4658C383.549 30.6006 384.332 29.5407 385.099 28.5128C385.866 27.4845 386.616 26.4873 387.175 25.7471C387.455 25.377 387.687 25.0711 387.848 24.8578L388.036 24.6106L388.085 24.5457L388.098 24.529L388.101 24.5248L388.102 24.5238V24.5235C388.102 24.5234 388.102 24.5234 388.406 24.7532L388.102 24.5234L388.102 24.5231C388.371 24.1707 388.717 23.7692 389.092 23.338C389.135 23.2889 389.178 23.2394 389.222 23.1894C389.563 22.7972 389.928 22.3784 390.292 21.9362C390.348 21.8687 390.407 21.7961 390.469 21.7193C390.857 21.2416 391.372 20.6065 392.003 20.0854C392.741 19.4752 393.68 18.9831 394.823 19.0716C395.42 19.1179 396.01 19.3955 396.551 19.7582C397.096 20.1238 397.621 20.5968 398.095 21.0753C398.569 21.5549 398.999 22.0489 399.35 22.4602C399.422 22.5447 399.49 22.6248 399.554 22.6999C399.81 23.0013 399.999 23.2243 400.123 23.3446C400.363 23.5784 400.694 23.9993 401.049 24.4881C401.409 24.9842 401.808 25.5725 402.188 26.1573C402.569 26.7421 402.931 27.3267 403.216 27.8158C403.494 28.2918 403.719 28.7104 403.8 28.9465C403.883 29.1861 404.109 29.787 404.398 30.5556C404.997 32.1484 405.865 34.4611 406.295 35.7696C406.497 36.3846 406.733 36.9557 406.991 37.5829C407.138 37.9407 407.293 38.317 407.453 38.7299C407.889 39.8513 408.342 41.1877 408.733 43.0283C409.509 46.6779 409.82 49.5859 409.82 51.4166V58.0824V58.0823C409.82 58.0823 409.82 58.0831 409.82 58.0848V58.0925L409.82 58.1191C409.821 58.1412 409.822 58.1704 409.823 58.2067C409.827 58.2792 409.832 58.3776 409.837 58.4986C409.849 58.7404 409.866 59.0706 409.887 59.461C409.928 60.2418 409.983 61.2622 410.039 62.2962C410.074 62.9263 410.108 63.5618 410.141 64.1511C410.214 65.4941 410.274 66.5971 410.286 66.851C410.323 67.6144 410.129 70.492 409.814 72.3121C409.762 72.6094 409.721 72.887 409.682 73.1485C409.61 73.6391 409.546 74.0728 409.437 74.4732C409.259 75.125 408.959 75.724 408.334 76.5002C407.107 78.0247 405.404 79.298 404.107 79.7287C402.899 80.1293 398.784 81.4238 398.007 81.6291C397.605 81.7355 396.167 82.0036 394.761 82.2423C394.053 82.3625 393.346 82.4767 392.769 82.5609C392.207 82.643 391.734 82.7023 391.522 82.7023C391.362 82.7023 391.008 82.7153 390.536 82.7326C389.962 82.7538 389.215 82.7813 388.433 82.7994C387.732 82.8156 387.011 82.8239 386.391 82.8116C385.78 82.7995 385.233 82.7673 384.896 82.6934C384.267 82.555 383.134 82.1258 382.062 81.6674C380.986 81.2079 379.912 80.6944 379.399 80.3709C378.875 80.0403 378.14 79.3909 377.467 78.6716C376.797 77.9543 376.148 77.124 375.828 76.419C375.656 76.0404 375.524 75.3923 375.416 74.6834C375.306 73.9584 375.217 73.1191 375.146 72.3255C375.076 71.531 375.023 70.7778 374.989 70.2235C374.971 69.9462 374.958 69.7185 374.95 69.5599C374.946 69.4806 374.942 69.4186 374.941 69.3763L374.938 69.328V69.3155L374.937 69.3123V69.3115V69.3113C374.937 69.3112 374.937 69.3111 375.318 69.2931Z" stroke="#909090" stroke-opacity="0.25"/>
<path d="M350.627 23.617C351.313 22.9504 353.676 19.6069 355.69 19.4509C357.705 19.2948 359.067 21.171 359.896 22.1778C360.727 23.1846 361.559 24.0715 362.078 24.7532C362.078 24.7532 367.951 32.4805 368.466 33.4643C368.981 34.4481 371.668 41.0022 372.205 42.4784C372.743 43.9545 373.374 46.5371 373.685 47.4777C373.997 48.4183 374.308 53.4618 374.308 53.4618C374.308 53.4618 374.996 59.5542 375.166 60.5064C375.336 61.4585 375.166 69.2931 375.166 69.2931C375.166 69.2931 374.897 74.9666 374.308 76.262C373.721 77.5573 371.85 79.438 370.881 80.0494C369.912 80.6609 366.685 82.0625 365.506 82.3219C364.326 82.5812 359.676 82.3219 358.962 82.3219C358.248 82.3219 353.338 81.4632 352.574 81.2614C351.81 81.0596 347.706 79.7686 346.498 79.3677C345.289 78.9667 343.644 77.7484 342.447 76.262C341.251 74.7757 341.358 74.0499 341.046 72.2474C340.734 70.4449 340.544 67.5965 340.578 66.8692C340.613 66.142 341.046 58.3855 341.046 58.0824V51.4166C341.046 49.621 341.351 46.7408 342.123 43.1073C342.896 39.4738 343.909 37.8409 344.551 35.8882C345.193 33.9356 346.773 29.8502 347.044 29.0709C347.314 28.2916 349.771 24.4503 350.627 23.617Z" fill="white"/>
<path d="M375.166 69.2931L375.547 69.3111V69.3014L375.166 69.2931ZM375.166 69.2931C375.547 69.3014 375.547 69.3014 375.547 69.3013V69.3011V69.2999V69.2957V69.2788L375.548 69.2129L375.554 68.9623C375.558 68.7459 375.564 68.4359 375.571 68.0609C375.584 67.3109 375.6 66.3008 375.611 65.2607C375.621 64.221 375.626 63.1496 375.619 62.2775C375.615 61.8417 375.607 61.4535 375.596 61.1428C375.584 60.8412 375.568 60.5888 375.541 60.4397C375.458 59.978 375.246 58.2327 375.052 56.5827C374.956 55.7622 374.864 54.9713 374.797 54.3854C374.764 54.0926 374.736 53.851 374.717 53.6827L374.695 53.4878L374.69 53.4367L374.688 53.4286V53.4235L374.686 53.3809L374.675 53.2185C374.666 53.0782 374.652 52.877 374.636 52.6325C374.601 52.1439 374.553 51.482 374.494 50.7904C374.435 50.0994 374.367 49.3756 374.293 48.7641C374.221 48.1679 374.139 47.6365 374.048 47.3585C373.93 47.0051 373.766 46.4108 373.575 45.7186C373.519 45.5121 373.459 45.297 373.397 45.077C373.134 44.1308 372.838 43.1024 372.564 42.3485C372.292 41.6015 371.483 39.5864 370.68 37.6418C369.88 35.7052 369.071 33.7996 368.804 33.2883C368.66 33.0118 368.175 32.3167 367.56 31.4658C366.936 30.6006 366.152 29.5407 365.385 28.5127C364.618 27.4845 363.867 26.4873 363.308 25.7471C363.029 25.377 362.797 25.0711 362.636 24.8578L362.448 24.6106L362.399 24.5457L362.386 24.529L362.383 24.5248L362.382 24.5238L362.382 24.5235C362.382 24.5234 362.382 24.5234 362.078 24.7532L362.382 24.5234V24.5231C362.113 24.1707 361.767 23.7692 361.392 23.338C361.349 23.2889 361.306 23.2394 361.262 23.1894C360.921 22.7972 360.556 22.3784 360.192 21.9362C360.136 21.8687 360.076 21.7961 360.015 21.7193C359.627 21.2416 359.112 20.6065 358.481 20.0854C357.743 19.4752 356.804 18.9831 355.661 19.0716C355.064 19.1179 354.474 19.3955 353.933 19.7582C353.388 20.1238 352.863 20.5968 352.389 21.0753C351.915 21.5549 351.485 22.0489 351.134 22.4602C351.062 22.5447 350.994 22.6248 350.93 22.6999C350.674 23.0013 350.484 23.2243 350.361 23.3446C350.121 23.5784 349.79 23.9993 349.435 24.4881C349.075 24.9842 348.676 25.5725 348.296 26.1573C347.915 26.7421 347.553 27.3267 347.268 27.8158C346.99 28.2918 346.766 28.7104 346.683 28.9465C346.6 29.1861 346.374 29.787 346.086 30.5556C345.488 32.1484 344.619 34.4611 344.189 35.7696C343.987 36.3846 343.751 36.9557 343.493 37.5829C343.346 37.9407 343.191 38.317 343.031 38.7299C342.594 39.8513 342.141 41.1877 341.75 43.0283C340.975 46.6779 340.664 49.5859 340.664 51.4166V58.0824V58.0823C340.664 58.0823 340.664 58.0831 340.664 58.0848V58.0925L340.664 58.1191C340.663 58.1412 340.661 58.1704 340.66 58.2067C340.657 58.2792 340.652 58.3776 340.646 58.4986C340.635 58.7404 340.618 59.0706 340.597 59.461C340.556 60.2418 340.501 61.2622 340.445 62.2962C340.411 62.9263 340.375 63.5618 340.343 64.1511C340.27 65.4941 340.21 66.5971 340.198 66.851C340.161 67.6144 340.355 70.492 340.671 72.3121C340.722 72.6094 340.763 72.887 340.801 73.1485C340.873 73.6391 340.937 74.0728 341.047 74.4732C341.225 75.125 341.525 75.724 342.15 76.5002C343.377 78.0247 345.08 79.298 346.377 79.7287C347.585 80.1293 351.699 81.4238 352.476 81.6291C352.879 81.7355 354.317 82.0036 355.723 82.2423C356.431 82.3625 357.138 82.4767 357.715 82.5609C358.277 82.643 358.75 82.7023 358.962 82.7023C359.123 82.7023 359.476 82.7153 359.948 82.7326C360.522 82.7538 361.269 82.7813 362.051 82.7994C362.752 82.8156 363.473 82.8239 364.094 82.8116C364.704 82.7995 365.251 82.7673 365.588 82.6934C366.217 82.555 367.35 82.1258 368.423 81.6674C369.498 81.2079 370.572 80.6944 371.085 80.3709C371.608 80.0403 372.344 79.3909 373.017 78.6716C373.687 77.9543 374.336 77.124 374.656 76.419C374.828 76.0404 374.961 75.3923 375.068 74.6834C375.177 73.9584 375.267 73.1191 375.337 72.3255C375.408 71.531 375.461 70.7778 375.495 70.2235C375.513 69.9462 375.525 69.7185 375.534 69.5599C375.538 69.4806 375.541 69.4186 375.543 69.3763L375.545 69.328L375.546 69.3155V69.3123V69.3115V69.3112C375.546 69.3112 375.546 69.3111 375.166 69.2931Z" stroke="#909090" stroke-opacity="0.25"/>
<path d="M319.732 34.0457C320.574 32.4882 322.451 30.0511 324.194 29.3378C325.937 28.6245 330.334 34.4595 331.214 35.6761C332.095 36.8926 334.069 40.1357 334.727 41.3002C335.385 42.4647 337.21 46.8623 337.71 48.4435C338.21 50.0247 338.784 53.5444 339.069 55.7484C339.355 57.9524 339.91 62.5989 340.196 63.8614C340.482 65.1238 341.356 72.2006 341.356 72.2006C341.356 72.2006 342.018 77.8131 341.138 80.6737C340.257 83.5343 338.326 85.961 338.326 85.961C338.326 85.961 335.288 90.3056 333.528 91.2014C331.769 92.0973 327.13 91.6866 325.235 90.8717C323.355 90.063 319.762 86.7694 318.641 85.7416L318.616 85.7182C317.524 84.7179 312.892 81.3217 311.906 79.7029C310.92 78.084 311.353 73.6332 311.312 71.8911C311.27 70.1489 312.903 57.7403 312.985 56.5533C313.067 55.3663 313.556 49.2081 313.821 47.8346C314.086 46.461 314.992 43.5857 316.358 40.5908C317.776 37.483 318.889 35.6032 319.732 34.0457Z" fill="white" stroke="#909090" stroke-opacity="0.25"/>
<path d="M430.42 34.0457C429.578 32.4882 427.701 30.0511 425.958 29.3378C424.214 28.6245 419.818 34.4595 418.938 35.6761C418.057 36.8926 416.082 40.1357 415.425 41.3002C414.767 42.4647 412.942 46.8623 412.442 48.4435C411.941 50.0247 411.369 53.5444 411.083 55.7484C410.797 57.9524 410.242 62.5989 409.956 63.8614C409.67 65.1238 408.796 72.2006 408.796 72.2006C408.796 72.2006 408.133 77.8131 409.014 80.6737C409.895 83.5343 411.826 85.961 411.826 85.961C411.826 85.961 414.864 90.3056 416.623 91.2014C418.383 92.0973 423.022 91.6866 424.917 90.8717C426.797 90.063 430.389 86.7694 431.51 85.7416L431.536 85.7182C432.628 84.7179 437.259 81.3217 438.245 79.7029C439.232 78.084 438.798 73.6332 438.84 71.8911C438.882 70.1489 437.249 57.7403 437.167 56.5533C437.085 55.3663 436.596 49.2081 436.33 47.8346C436.066 46.461 435.16 43.5857 433.793 40.5908C432.376 37.483 431.263 35.6032 430.42 34.0457Z" fill="white" stroke="#909090" stroke-opacity="0.25"/>
<path d="M288.289 42.7369C288.456 42.2548 290.891 35.0794 292.055 34.6652C293.219 34.251 293.939 35.6394 293.939 35.6394L298.31 41.6813C298.31 41.6813 305.418 55.422 306.155 57.2828C306.891 59.1437 310.428 69.0805 310.796 70.1556C311.165 71.2306 311.738 75.3543 311.807 77.5185C311.877 79.6825 312.451 92.193 312.451 92.193V104.86C312.451 104.86 313.765 114.365 313.999 115.673C314.233 116.98 316.112 124.542 315.177 124.839C314.242 125.136 308.177 118.626 307.12 117.33C306.063 116.035 298.631 108.072 297.984 107.101C297.336 106.131 292.487 98.934 291.498 96.5246C290.508 94.1159 284.57 69.3315 284.453 67.9261C284.335 66.5208 284.453 60.8286 284.453 60.8286C284.453 60.8286 285.134 52.7927 285.29 51.8523C285.445 50.912 288.121 43.2189 288.289 42.7369Z" fill="white" stroke="#909090" stroke-opacity="0.25" stroke-linejoin="round"/>
<path d="M462.958 42.7369C462.791 42.2548 460.356 35.0794 459.191 34.6652C458.028 34.251 457.308 35.6394 457.308 35.6394L452.936 41.6813C452.936 41.6813 445.829 55.422 445.092 57.2828C444.356 59.1437 440.819 69.0805 440.45 70.1556C440.081 71.2306 439.509 75.3543 439.439 77.5185C439.37 79.6825 438.796 92.193 438.796 92.193V104.86C438.796 104.86 437.482 114.365 437.248 115.673C437.014 116.98 435.135 124.542 436.07 124.839C437.004 125.136 443.07 118.626 444.127 117.33C445.184 116.035 452.616 108.072 453.263 107.101C453.91 106.131 458.759 98.934 459.749 96.5246C460.739 94.1159 466.676 69.3315 466.794 67.9261C466.911 66.5208 466.794 60.8286 466.794 60.8286C466.794 60.8286 466.112 52.7927 465.957 51.8523C465.801 50.912 463.126 43.2189 462.958 42.7369Z" fill="white" stroke="#909090" stroke-opacity="0.25" stroke-linejoin="round"/>
<path d="M275.401 70.4264C275.457 69.3089 276.879 64.7916 278.362 64.6146C279.845 64.4375 280.149 65.4697 281.073 66.0196C281.996 66.5695 282.336 66.7587 283.089 67.5524C283.842 68.3461 284.6 68.617 285.232 69.66C285.864 70.703 287.667 76.4501 288.146 77.5829C288.624 78.7157 289.68 83.4819 289.759 84.2335C289.838 84.9852 290.275 89.3732 290.193 90.5261C290.111 91.679 290.268 91.7459 290.032 92.6975C289.796 93.6492 289.396 94.7671 288.917 95.4746C288.438 96.1814 287.612 97.5296 287.195 98.3954C286.779 99.2612 284.579 101.981 283.909 102.458C283.238 102.935 281.569 103.369 280.379 103.062C279.189 102.756 278.582 102.657 278.048 101.593C277.513 100.529 276.49 89.5092 276.469 88.0006C276.447 86.4919 276.409 85.6262 276.094 84.7963C275.779 83.9665 275.463 81.6703 275.401 80.5173C275.34 79.3642 275.346 71.5438 275.401 70.4264Z" fill="white" stroke="#919191" stroke-opacity="0.25" stroke-linejoin="round"/>
<path d="M475.515 70.4264C475.459 69.3089 474.038 64.7916 472.554 64.6146C471.071 64.4375 470.766 65.4697 469.844 66.0196C468.92 66.5695 468.58 66.7587 467.827 67.5524C467.074 68.3461 466.316 68.617 465.684 69.66C465.052 70.703 463.249 76.4501 462.77 77.5829C462.292 78.7157 461.236 83.4819 461.157 84.2335C461.078 84.9852 460.641 89.3732 460.723 90.5261C460.805 91.679 460.648 91.7459 460.884 92.6975C461.12 93.6492 461.52 94.7671 461.999 95.4746C462.478 96.1814 463.304 97.5296 463.721 98.3954C464.137 99.2612 466.337 101.981 467.007 102.458C467.678 102.935 469.347 103.369 470.537 103.062C471.727 102.756 472.333 102.657 472.869 101.593C473.403 100.529 474.426 89.5092 474.447 88.0006C474.469 86.4919 474.507 85.6262 474.822 84.7963C475.137 83.9665 475.453 81.6703 475.515 80.5173C475.577 79.3642 475.57 71.5438 475.515 70.4264Z" fill="white" stroke="#919191" stroke-opacity="0.25" stroke-linejoin="round"/>
<path d="M262.383 86.4159C262.725 85.7077 264.709 83.9858 264.926 83.8349C265.142 83.684 267.827 83.9652 267.977 84.1217C268.127 84.2782 269.863 87.5154 269.91 87.6852C269.958 87.855 272.009 93.3264 272.16 93.6827C272.31 94.039 273.789 99.78 273.789 99.78C273.789 99.78 275.31 104.824 275.353 105.247C275.396 105.671 275.087 108.404 274.986 108.616C274.885 108.828 274.375 109.796 274.085 109.888C273.796 109.98 273.139 109.679 272.736 109.276C272.332 108.874 272.054 107.919 271.864 107.392C271.673 106.865 270.647 106.12 269.91 106.014C269.174 105.909 267.124 105.023 266.871 104.726C266.618 104.429 261.307 95.0927 261.101 94.4018C260.896 93.7108 260.843 91.3921 260.946 90.1221C261.049 88.8521 262.041 87.1242 262.383 86.4159Z" fill="white" stroke="white"/>
<path d="M483.087 85.9725C482.619 85.3397 480.35 84.014 480.109 83.9057C479.868 83.7974 477.282 84.5696 477.164 84.7511C477.045 84.9326 475.94 88.4344 475.925 88.61C475.91 88.7858 474.91 94.5414 474.828 94.9193C474.745 95.2974 474.357 101.213 474.357 101.213C474.357 101.213 473.799 106.45 473.836 106.874C473.872 107.298 474.682 109.927 474.821 110.116C474.96 110.307 475.641 111.163 475.942 111.201C476.243 111.238 476.833 110.82 477.155 110.35C477.477 109.88 477.572 108.89 477.662 108.337C477.751 107.784 478.622 106.862 479.326 106.623C480.03 106.383 481.88 105.134 482.073 104.795C482.267 104.457 485.755 94.3006 485.828 93.5836C485.902 92.8665 485.524 90.5781 485.187 89.3491C484.85 88.1201 483.554 86.6053 483.087 85.9725Z" fill="white" stroke="#909090" stroke-opacity="0.25"/>
</g>
<defs>
<clipPath id="clip0_43_884">
<rect width="228" height="264" fill="white" transform="translate(260 18.5)"/>
</clipPath>
</defs>
</svg>
